<?xml version="1.0" standalone="no"?>
<!DOCTYPE svg PUBLIC "-//W3C//DTD SVG 20010904//EN"
 "http://www.w3.org/TR/2001/REC-SVG-20010904/DTD/svg10.dtd">
<svg version="1.0" xmlns="http://www.w3.org/2000/svg"
 width="815.000000pt" height="815.000000pt" viewBox="0 0 815.000000 815.000000"
 preserveAspectRatio="xMidYMid meet">
<metadata>
Created by potrace 1.11, written by Peter Selinger 2001-2013
</metadata>
<g transform="translate(0.000000,815.000000) scale(0.100000,-0.100000)"
fill="#000000" stroke="none">
<path d="M3275 8127 c-11 -6 -26 -17 -34 -24 -7 -8 -30 -22 -50 -33 -21 -10
-54 -35 -74 -55 -21 -21 -37 -34 -37 -31 0 4 -10 -2 -22 -14 -12 -11 -25 -20
-30 -20 -4 0 -15 -15 -24 -32 -21 -42 -242 -261 -254 -253 -6 4 -10 1 -10 -4
0 -6 -5 -11 -11 -11 -14 0 -183 -109 -187 -121 -2 -5 -8 -7 -12 -4 -5 3 -15
-4 -23 -15 -7 -11 -16 -18 -18 -15 -3 2 -24 -12 -49 -31 -24 -19 -54 -37 -67
-40 -13 -4 -23 -10 -23 -15 0 -5 -24 -20 -53 -33 -29 -13 -77 -40 -105 -60
-29 -20 -52 -34 -52 -31 0 6 -118 -74 -183 -124 -21 -16 -79 -67 -129 -113
-50 -46 -109 -96 -132 -113 -23 -16 -43 -32 -46 -36 -3 -4 -14 -9 -25 -11 -11
-1 -40 -25 -65 -51 -25 -26 -66 -70 -92 -97 -27 -26 -48 -54 -48 -60 0 -7 -23
-46 -51 -88 -28 -41 -52 -80 -53 -86 -1 -6 -5 -17 -9 -23 -11 -17 -39 -112
-43 -143 -2 -14 -6 -50 -9 -81 -3 -31 -9 -78 -12 -105 -7 -65 -7 -159 0 -209
11 -69 18 -177 17 -247 -1 -41 5 -81 15 -105 22 -52 36 -132 39 -234 2 -47 6
-91 10 -97 4 -6 9 -42 11 -79 4 -60 9 -98 15 -113 1 -3 2 -8 1 -12 0 -5 4 -8
9 -8 6 0 10 -8 10 -17 0 -10 10 -38 22 -63 12 -25 20 -49 19 -54 -1 -4 2 -13
7 -20 35 -43 35 -246 1 -246 -6 0 -5 -9 1 -20 6 -11 8 -20 5 -20 -2 0 1 -17 9
-37 7 -21 19 -58 27 -83 7 -25 16 -49 19 -55 4 -5 8 -62 9 -125 0 -63 4 -126
7 -140 7 -31 8 -58 0 -89 -3 -15 2 -36 13 -55 24 -38 63 -186 49 -186 -5 0 -7
-4 -4 -9 3 -5 0 -14 -8 -20 -7 -6 -21 -29 -31 -51 -10 -22 -22 -40 -27 -40 -4
0 -8 -5 -8 -11 0 -15 -93 -131 -122 -152 -13 -10 -38 -27 -56 -38 -32 -19 -33
-21 -19 -42 8 -12 20 -22 27 -22 16 0 71 -56 64 -66 -3 -5 -1 -9 4 -9 5 0 9
-6 10 -12 6 -60 12 -81 26 -102 8 -14 18 -41 20 -61 5 -37 19 -64 52 -100 29
-31 89 -163 86 -190 -1 -14 2 -25 7 -25 4 0 14 -18 21 -40 7 -22 17 -40 22
-40 5 0 14 -12 21 -28 16 -37 47 -82 79 -117 15 -16 25 -32 22 -37 -3 -4 0 -8
7 -8 7 0 10 -3 7 -6 -3 -3 12 -37 33 -76 21 -39 39 -75 39 -79 0 -5 4 -9 10
-9 5 0 9 -4 7 -8 -3 -11 45 -115 58 -124 5 -4 7 -8 2 -8 -12 0 73 -162 106
-200 16 -19 59 -66 94 -105 82 -91 83 -92 76 -99 -4 -3 -1 -6 6 -6 7 0 10 -4
6 -9 -7 -13 70 -74 98 -78 43 -5 172 -15 182 -14 6 0 24 3 40 7 40 8 75 -22
75 -64 0 -17 5 -34 11 -38 9 -5 40 -65 44 -84 0 -3 6 -14 12 -26 7 -12 14 -41
16 -65 4 -39 15 -65 75 -175 8 -14 16 -37 18 -52 3 -15 9 -31 15 -36 5 -6 9
-18 9 -27 0 -10 7 -24 15 -33 9 -8 16 -19 16 -23 0 -4 7 -17 17 -28 31 -37
100 -142 107 -164 3 -11 11 -21 16 -21 5 0 9 -6 9 -13 0 -8 18 -32 40 -55 22
-22 40 -43 40 -46 0 -12 46 -59 80 -82 19 -13 30 -24 25 -24 -5 0 6 -12 25
-27 19 -16 42 -35 51 -45 9 -9 26 -19 38 -23 12 -3 21 -11 21 -17 0 -6 3 -8 6
-5 4 4 35 -14 70 -38 34 -25 67 -45 73 -45 5 0 14 -7 19 -16 5 -9 11 -14 13
-13 2 2 25 -11 51 -29 26 -18 51 -32 57 -32 6 0 11 -4 11 -10 0 -5 9 -10 20
-10 11 0 20 -5 20 -11 0 -5 3 -8 8 -5 4 2 33 -13 65 -34 32 -22 79 -50 105
-63 155 -79 211 -106 247 -117 22 -7 46 -17 53 -23 6 -5 12 -7 12 -4 0 4 38
-13 85 -38 47 -24 85 -41 85 -37 0 3 5 1 12 -6 7 -7 18 -12 26 -12 8 0 28 -6
45 -14 33 -14 83 -28 153 -44 23 -5 90 -10 150 -11 60 -1 125 -2 144 -3 79 -1
210 5 210 11 0 3 17 6 38 5 20 0 73 8 117 18 83 19 87 20 120 31 11 3 36 9 55
11 102 15 142 24 149 33 3 5 11 9 17 10 29 5 62 13 99 24 22 6 48 11 58 12 9
1 17 4 17 8 0 4 13 10 30 14 16 4 32 11 35 16 4 5 14 9 23 9 10 0 29 11 44 25
15 14 32 25 38 25 5 0 10 5 10 10 0 6 3 9 8 8 14 -4 91 42 117 69 14 16 38 49
53 75 15 27 30 48 35 48 4 0 7 5 7 11 0 6 6 16 13 23 6 7 21 25 32 40 11 16
25 33 30 40 25 27 85 117 85 126 0 6 5 10 12 10 6 0 8 3 5 6 -6 6 15 31 94
112 23 24 49 61 96 137 7 11 22 40 33 65 12 25 28 58 36 74 8 16 14 33 14 37
0 4 5 20 12 36 6 15 12 30 13 33 1 3 7 19 14 35 20 47 61 188 61 211 0 11 3
24 7 28 4 3 8 16 10 28 2 12 10 36 19 52 8 17 17 51 20 76 3 25 13 63 21 85 9
22 17 49 18 60 1 11 5 28 9 37 7 14 11 188 6 228 -1 8 -1 31 -1 50 1 19 1 42
1 50 0 8 0 33 1 55 2 47 -9 154 -18 168 -3 5 -6 45 -7 88 -1 43 -4 80 -7 83
-6 7 -3 203 5 236 3 14 12 48 20 75 7 28 16 67 19 85 8 57 48 163 73 192 12
16 25 37 29 48 3 11 11 20 16 20 6 0 8 4 5 9 -3 5 0 14 8 20 10 9 31 88 28
108 -1 2 3 17 8 34 16 56 13 253 -5 310 -10 31 -15 77 -20 187 -2 56 -7 107
-10 112 -7 11 -15 42 -21 84 -5 34 -27 72 -59 101 -12 11 -34 43 -50 70 -15
28 -30 52 -34 55 -18 15 -34 60 -36 105 -2 27 -6 68 -10 90 -7 39 -12 94 -19
220 -5 72 -12 114 -27 152 -6 15 -13 41 -16 58 -3 16 -12 43 -20 58 -8 16 -21
61 -29 100 -9 40 -24 98 -34 130 -13 40 -19 87 -19 155 -1 147 -11 224 -37
295 -34 89 -27 135 31 192 19 19 151 112 181 128 16 8 38 24 49 34 11 11 27
22 36 25 16 6 69 108 69 133 0 8 -7 32 -15 53 -19 46 -70 75 -166 92 -35 7
-77 17 -93 23 -33 12 -44 14 -131 18 -33 1 -76 7 -95 12 -19 5 -50 10 -68 12
-40 2 -89 50 -84 81 3 22 -41 129 -58 139 -6 3 -10 14 -10 25 0 10 -7 21 -16
24 -8 3 -13 10 -9 15 3 5 1 12 -5 16 -6 4 -8 11 -5 16 4 5 2 9 -3 9 -5 0 -9 6
-9 13 -2 20 -27 81 -38 89 -5 4 -6 8 -1 8 5 0 3 7 -4 15 -7 8 -20 28 -29 44
-25 46 -84 106 -148 150 -83 58 -87 61 -117 109 -15 24 -33 45 -41 48 -7 3
-16 16 -19 29 -3 13 -15 27 -26 30 -11 3 -20 11 -20 16 0 5 -6 9 -14 9 -8 0
-16 3 -18 8 -4 8 -65 52 -73 52 -3 0 -15 9 -27 20 -12 11 -28 20 -35 20 -7 0
-13 4 -13 9 0 5 -26 28 -57 52 -32 23 -60 45 -63 49 -3 3 -21 17 -40 30 -19
14 -43 32 -53 41 -10 9 -44 25 -75 34 -31 10 -78 28 -104 41 -26 13 -54 24
-63 24 -8 0 -23 4 -33 9 -9 5 -57 24 -107 42 -49 18 -95 36 -100 40 -6 5 -20
8 -30 8 -31 1 -59 6 -73 15 -6 4 -12 5 -12 1 0 -3 -10 0 -22 7 -13 6 -27 13
-33 14 -5 1 -35 9 -65 18 -30 9 -55 16 -55 15 0 -1 -27 6 -60 16 -33 9 -61 16
-63 15 -2 -1 -14 6 -28 14 -13 9 -24 14 -24 10 0 -4 -7 -1 -15 6 -8 7 -15 9
-15 5 0 -4 -6 -3 -12 3 -11 8 -38 16 -88 27 -15 3 -61 19 -105 36 -27 10 -59
20 -70 22 -11 2 -27 7 -35 10 -8 3 -40 13 -70 21 -64 17 -153 49 -160 57 -3 3
-36 16 -75 28 -54 18 -99 24 -195 27 -69 2 -136 6 -150 8 -14 3 -34 0 -45 -7z
m3307 -4104 c20 -21 47 -49 60 -63 13 -14 38 -36 56 -50 17 -14 31 -30 32 -37
0 -6 4 -13 9 -15 5 -1 11 -21 14 -43 3 -22 13 -67 22 -100 38 -137 41 -154 38
-235 -2 -76 -4 -97 -14 -115 -3 -5 -6 -23 -7 -39 -2 -32 -50 -147 -67 -158 -5
-4 -7 -8 -2 -8 4 0 -1 -8 -10 -18 -10 -11 -21 -17 -25 -15 -5 2 -8 0 -8 -6 0
-13 -52 -61 -66 -61 -6 0 -17 -6 -24 -14 -17 -21 -39 -9 -35 20 1 13 -1 26 -5
29 -3 2 -5 163 -2 357 2 194 3 367 2 383 -4 53 -4 79 1 100 2 13 -1 19 -9 17
-8 -1 -11 2 -6 9 11 18 13 59 3 59 -5 0 -9 9 -9 20 0 29 11 25 52 -17z"/>
</g>
</svg>
